<svg width="512" height="512" viewBox="0 0 512 512" fill="none" xmlns="http://www.w3.org/2000/svg">
<rect width="391.868" height="88.0362" rx="44.0181" transform="matrix(0.5 -0.866025 0.872096 0.489335 44 403.367)" fill="url(#paint0_linear_1931_991)"/>
<rect width="391.868" height="88.0362" rx="44.0181" transform="matrix(-1 0 -0.0122712 -0.999925 449.143 436.289)" fill="url(#paint1_linear_1931_991)"/>
<path d="M234.678 86.7788C213.477 98.6747 206.144 125.386 218.299 146.439L370.215 409.565C382.37 430.619 409.411 438.043 430.612 426.147C451.813 414.251 459.146 387.54 446.991 366.486L295.075 103.36C282.92 82.3064 255.879 74.8828 234.678 86.7788Z" fill="url(#paint2_linear_1931_991)"/>
<defs>
<linearGradient id="paint0_linear_1931_991" x1="365.059" y1="44.7521" x2="20.7336" y2="33.1067" gradientUnits="userSpaceOnUse">
<stop stop-color="#EDB1F1"/>
<stop offset="1" stop-color="#9C97F2"/>
</linearGradient>
<linearGradient id="paint1_linear_1931_991" x1="362.052" y1="43.993" x2="12.074" y2="35.4037" gradientUnits="userSpaceOnUse">
<stop stop-color="#D59BF6"/>
<stop offset="1" stop-color="#EDB1F1"/>
</linearGradient>
<linearGradient id="paint2_linear_1931_991" x1="420.599" y1="409.907" x2="247.13" y2="103.909" gradientUnits="userSpaceOnUse">
<stop stop-color="#9896F1"/>
<stop offset="1" stop-color="#D59BF6"/>
</linearGradient>
</defs>
</svg>
